<mxfile host="app.diagrams.net" agent="Mozilla/5.0 (Windows NT 10.0; Win64; x64) AppleWebKit/537.36 (KHTML, like Gecko) Chrome/128.0.0.0 Safari/537.36" version="24.7.14">
  <diagram name="Página-1" id="LlL8JeujX7QB7sGDsEG1">
    <mxGraphModel dx="1434" dy="738" grid="1" gridSize="10" guides="1" tooltips="1" connect="1" arrows="1" fold="1" page="1" pageScale="1" pageWidth="827" pageHeight="1169" math="0" shadow="0">
      <root>
        <mxCell id="0" />
        <mxCell id="1" parent="0" />
        <mxCell id="X0I_PxbomTgAgZgH7O5F-1" value="" style="rounded=0;whiteSpace=wrap;html=1;" vertex="1" parent="1">
          <mxGeometry x="40" y="60" width="350" height="340" as="geometry" />
        </mxCell>
        <mxCell id="X0I_PxbomTgAgZgH7O5F-2" value="developed by @lucaslferrari" style="rounded=0;whiteSpace=wrap;html=1;" vertex="1" parent="1">
          <mxGeometry x="40" y="370" width="350" height="30" as="geometry" />
        </mxCell>
        <mxCell id="X0I_PxbomTgAgZgH7O5F-3" value="Foto perfil" style="rounded=1;whiteSpace=wrap;html=1;" vertex="1" parent="1">
          <mxGeometry x="260" y="140" width="120" height="140" as="geometry" />
        </mxCell>
        <mxCell id="X0I_PxbomTgAgZgH7O5F-4" value="Página inicial sobre projetos contato" style="rounded=0;whiteSpace=wrap;html=1;align=right;" vertex="1" parent="1">
          <mxGeometry x="40" y="60" width="350" height="30" as="geometry" />
        </mxCell>
        <mxCell id="X0I_PxbomTgAgZgH7O5F-5" value="&lt;h1 style=&quot;margin-top: 0px;&quot;&gt;&lt;font style=&quot;font-size: 16px;&quot;&gt;Olá, eu sou&lt;/font&gt;&lt;/h1&gt;&lt;h1 style=&quot;margin-top: 0px;&quot;&gt;Lucas Ferrari&lt;/h1&gt;&lt;div&gt;Texto aqui&lt;/div&gt;" style="text;html=1;whiteSpace=wrap;overflow=hidden;rounded=0;" vertex="1" parent="1">
          <mxGeometry x="50" y="140" width="180" height="120" as="geometry" />
        </mxCell>
        <mxCell id="X0I_PxbomTgAgZgH7O5F-6" value="Sobre mim" style="rounded=1;whiteSpace=wrap;html=1;" vertex="1" parent="1">
          <mxGeometry x="50" y="260" width="110" height="30" as="geometry" />
        </mxCell>
        <mxCell id="X0I_PxbomTgAgZgH7O5F-9" value="" style="rounded=0;whiteSpace=wrap;html=1;" vertex="1" parent="1">
          <mxGeometry x="40" y="470" width="350" height="340" as="geometry" />
        </mxCell>
        <mxCell id="X0I_PxbomTgAgZgH7O5F-10" value="developed by @lucaslferrari" style="rounded=0;whiteSpace=wrap;html=1;" vertex="1" parent="1">
          <mxGeometry x="40" y="780" width="350" height="30" as="geometry" />
        </mxCell>
        <mxCell id="X0I_PxbomTgAgZgH7O5F-12" value="Página inicial sobre projetos contato" style="rounded=0;whiteSpace=wrap;html=1;align=right;" vertex="1" parent="1">
          <mxGeometry x="40" y="470" width="350" height="30" as="geometry" />
        </mxCell>
        <mxCell id="X0I_PxbomTgAgZgH7O5F-13" value="&lt;h1 style=&quot;margin-top: 0px;&quot;&gt;&lt;span style=&quot;font-size: 16px;&quot;&gt;Sobre Mim&lt;/span&gt;&lt;/h1&gt;&lt;div&gt;Texto aqui&lt;/div&gt;" style="text;html=1;whiteSpace=wrap;overflow=hidden;rounded=0;" vertex="1" parent="1">
          <mxGeometry x="50" y="520" width="180" height="80" as="geometry" />
        </mxCell>
        <mxCell id="X0I_PxbomTgAgZgH7O5F-14" value="skills" style="rounded=1;whiteSpace=wrap;html=1;" vertex="1" parent="1">
          <mxGeometry x="50" y="640" width="110" height="30" as="geometry" />
        </mxCell>
        <mxCell id="X0I_PxbomTgAgZgH7O5F-15" value="skills" style="rounded=1;whiteSpace=wrap;html=1;" vertex="1" parent="1">
          <mxGeometry x="50" y="680" width="110" height="30" as="geometry" />
        </mxCell>
        <mxCell id="X0I_PxbomTgAgZgH7O5F-16" value="skills" style="rounded=1;whiteSpace=wrap;html=1;" vertex="1" parent="1">
          <mxGeometry x="50" y="720" width="110" height="30" as="geometry" />
        </mxCell>
        <mxCell id="X0I_PxbomTgAgZgH7O5F-17" value="skills" style="rounded=1;whiteSpace=wrap;html=1;" vertex="1" parent="1">
          <mxGeometry x="230" y="640" width="110" height="30" as="geometry" />
        </mxCell>
        <mxCell id="X0I_PxbomTgAgZgH7O5F-18" value="skills" style="rounded=1;whiteSpace=wrap;html=1;" vertex="1" parent="1">
          <mxGeometry x="230" y="680" width="110" height="30" as="geometry" />
        </mxCell>
        <mxCell id="X0I_PxbomTgAgZgH7O5F-19" value="skills" style="rounded=1;whiteSpace=wrap;html=1;" vertex="1" parent="1">
          <mxGeometry x="230" y="720" width="110" height="30" as="geometry" />
        </mxCell>
        <mxCell id="X0I_PxbomTgAgZgH7O5F-20" value="Hardskills" style="text;html=1;align=center;verticalAlign=middle;whiteSpace=wrap;rounded=0;" vertex="1" parent="1">
          <mxGeometry x="50" y="600" width="60" height="30" as="geometry" />
        </mxCell>
        <mxCell id="X0I_PxbomTgAgZgH7O5F-21" value="Softskills" style="text;html=1;align=center;verticalAlign=middle;whiteSpace=wrap;rounded=0;" vertex="1" parent="1">
          <mxGeometry x="230" y="600" width="60" height="30" as="geometry" />
        </mxCell>
        <mxCell id="X0I_PxbomTgAgZgH7O5F-22" value="" style="rounded=0;whiteSpace=wrap;html=1;" vertex="1" parent="1">
          <mxGeometry x="414" y="60" width="350" height="340" as="geometry" />
        </mxCell>
        <mxCell id="X0I_PxbomTgAgZgH7O5F-23" value="developed by @lucaslferrari" style="rounded=0;whiteSpace=wrap;html=1;" vertex="1" parent="1">
          <mxGeometry x="414" y="370" width="350" height="30" as="geometry" />
        </mxCell>
        <mxCell id="X0I_PxbomTgAgZgH7O5F-24" value="Página inicial sobre projetos contato" style="rounded=0;whiteSpace=wrap;html=1;align=right;" vertex="1" parent="1">
          <mxGeometry x="414" y="60" width="350" height="30" as="geometry" />
        </mxCell>
        <mxCell id="X0I_PxbomTgAgZgH7O5F-25" value="&lt;h1 style=&quot;margin-top: 0px;&quot;&gt;&lt;span style=&quot;font-size: 16px;&quot;&gt;Meus Projetos&lt;/span&gt;&lt;/h1&gt;" style="text;html=1;whiteSpace=wrap;overflow=hidden;rounded=0;" vertex="1" parent="1">
          <mxGeometry x="424" y="100" width="180" height="40" as="geometry" />
        </mxCell>
        <mxCell id="X0I_PxbomTgAgZgH7O5F-26" value="&lt;b&gt;&lt;font style=&quot;font-size: 15px;&quot;&gt;Titulo&lt;/font&gt;&lt;/b&gt;&lt;div&gt;Sobre o projeto&lt;/div&gt;" style="rounded=1;whiteSpace=wrap;html=1;verticalAlign=bottom;" vertex="1" parent="1">
          <mxGeometry x="424" y="140" width="316" height="100" as="geometry" />
        </mxCell>
        <mxCell id="X0I_PxbomTgAgZgH7O5F-34" value="Imagem do projeto" style="rounded=1;whiteSpace=wrap;html=1;" vertex="1" parent="1">
          <mxGeometry x="440" y="150" width="290" height="50" as="geometry" />
        </mxCell>
        <mxCell id="X0I_PxbomTgAgZgH7O5F-35" value="&lt;b&gt;&lt;font style=&quot;font-size: 15px;&quot;&gt;Titulo&lt;/font&gt;&lt;/b&gt;&lt;div&gt;Sobre o projeto&lt;/div&gt;" style="rounded=1;whiteSpace=wrap;html=1;verticalAlign=bottom;" vertex="1" parent="1">
          <mxGeometry x="427" y="250" width="314" height="97" as="geometry" />
        </mxCell>
        <mxCell id="X0I_PxbomTgAgZgH7O5F-36" value="Imagem do projeto" style="rounded=1;whiteSpace=wrap;html=1;" vertex="1" parent="1">
          <mxGeometry x="443" y="260" width="290" height="47" as="geometry" />
        </mxCell>
        <mxCell id="X0I_PxbomTgAgZgH7O5F-37" value="" style="rounded=0;whiteSpace=wrap;html=1;" vertex="1" parent="1">
          <mxGeometry x="413" y="470" width="350" height="340" as="geometry" />
        </mxCell>
        <mxCell id="X0I_PxbomTgAgZgH7O5F-38" value="developed by @lucaslferrari" style="rounded=0;whiteSpace=wrap;html=1;" vertex="1" parent="1">
          <mxGeometry x="413" y="780" width="350" height="30" as="geometry" />
        </mxCell>
        <mxCell id="X0I_PxbomTgAgZgH7O5F-39" value="Página inicial sobre projetos contato" style="rounded=0;whiteSpace=wrap;html=1;align=right;" vertex="1" parent="1">
          <mxGeometry x="413" y="470" width="350" height="30" as="geometry" />
        </mxCell>
        <mxCell id="X0I_PxbomTgAgZgH7O5F-40" value="&lt;h1 style=&quot;margin-top: 0px;&quot;&gt;&lt;span style=&quot;font-size: 16px;&quot;&gt;Contatos&lt;/span&gt;&lt;/h1&gt;" style="text;html=1;whiteSpace=wrap;overflow=hidden;rounded=0;" vertex="1" parent="1">
          <mxGeometry x="423" y="520" width="180" height="40" as="geometry" />
        </mxCell>
        <mxCell id="X0I_PxbomTgAgZgH7O5F-48" value="Pode me encontrar aqui" style="text;html=1;align=center;verticalAlign=middle;whiteSpace=wrap;rounded=0;" vertex="1" parent="1">
          <mxGeometry x="520.5" y="560" width="137" height="30" as="geometry" />
        </mxCell>
        <mxCell id="X0I_PxbomTgAgZgH7O5F-50" value="Linkedin&lt;div&gt;GitHub&lt;/div&gt;&lt;div&gt;Instagram&lt;/div&gt;" style="text;html=1;align=center;verticalAlign=middle;whiteSpace=wrap;rounded=0;fontStyle=1" vertex="1" parent="1">
          <mxGeometry x="506.75" y="590" width="153.25" height="50" as="geometry" />
        </mxCell>
      </root>
    </mxGraphModel>
  </diagram>
</mxfile>
